<?xml version="1.0" standalone="no"?>
<!DOCTYPE svg PUBLIC "-//W3C//DTD SVG 20010904//EN"
 "http://www.w3.org/TR/2001/REC-SVG-20010904/DTD/svg10.dtd">
<svg version="1.0" xmlns="http://www.w3.org/2000/svg"
 width="260.000000pt" height="260.000000pt" viewBox="0 0 260.000000 260.000000"
 preserveAspectRatio="xMidYMid meet">
<metadata>
Created by potrace 1.11, written by Peter Selinger 2001-2013
</metadata>
<g transform="translate(0.000000,260.000000) scale(0.100000,-0.100000)"
fill="#000000" stroke="none">
<path d="M1288 2595 c-2 -2 -34 -5 -71 -6 -92 -3 -241 -33 -351 -70 -294 -98
-555 -321 -713 -609 -63 -115 -104 -237 -133 -395 -17 -90 -18 -168 -19 -807
l-1 -708 376 0 376 0 -2 37 c-1 21 -2 50 -1 65 l1 27 54 -24 c75 -33 225 -72
331 -86 85 -11 295 -8 358 5 15 3 37 8 50 10 164 29 367 119 512 226 296 219
497 578 522 930 3 52 6 390 7 750 l0 655 -374 0 -375 0 1 -60 0 -61 -88 33
c-78 30 -149 49 -243 68 -16 3 -66 8 -110 11 -44 3 -85 7 -92 9 -6 2 -13 2
-15 0z m89 -761 c-3 -3 -12 -4 -19 -1 -8 3 -5 6 6 6 11 1 17 -2 13 -5z m68
-14 c3 -6 -1 -7 -9 -4 -18 7 -21 14 -7 14 6 0 13 -4 16 -10z m-20 -41 c83 -13
212 -72 272 -124 27 -22 56 -63 78 -108 145 -294 17 -626 -290 -754 -138 -57
-321 -44 -458 34 -112 62 -160 122 -203 250 -98 291 74 610 374 692 79 21 142
24 227 10z"/>
</g>
</svg>
