<svg width="16" height="15" viewBox="0 0 16 15" fill="none" xmlns="http://www.w3.org/2000/svg">
<path fill-rule="evenodd" clip-rule="evenodd" d="M14.3969 10.3431C13.5904 10.3431 12.9343 9.68698 12.9343 8.88052V5.4328C12.9343 2.43716 10.4971 0 7.50146 0C4.50574 0 2.0686 2.43716 2.0686 5.4328V8.88052C2.0686 9.68701 1.41248 10.3431 0.606018 10.3431C0.271362 10.3431 0 10.6144 0 10.9492C0 11.2839 0.271362 11.5552 0.606018 11.5552H14.3969C14.7316 11.5552 15.0029 11.2839 15.0029 10.9492C15.0029 10.6144 14.7316 10.3431 14.3969 10.3431ZM2.84448 10.3431C3.12024 9.92252 3.28076 9.41986 3.28076 8.88052V5.4328C3.28076 3.10547 5.17413 1.21207 7.50146 1.21207C9.8288 1.21207 11.7222 3.10547 11.7222 5.4328V8.88052C11.7222 9.41989 11.8828 9.92255 12.1584 10.3431H2.84448ZM8.1701 13.4032C8.33807 13.1137 8.70892 13.0151 8.99841 13.183C9.28796 13.351 9.38647 13.7219 9.21857 14.0114C8.85071 14.6455 8.18329 15 7.49811 15C7.16022 15 6.81805 14.9138 6.50537 14.7324C6.20679 14.5592 5.95746 14.3099 5.7843 14.0114C5.61639 13.7219 5.7149 13.351 6.00439 13.183C6.29395 13.0151 6.66479 13.1136 6.83276 13.4032C6.90015 13.5194 6.99725 13.6165 7.11353 13.684C7.48224 13.8979 7.95624 13.7719 8.1701 13.4032Z" fill="#989898"/>
</svg>
