<svg width="12" height="15" viewBox="0 0 12 15" fill="none" xmlns="http://www.w3.org/2000/svg">
<path fill-rule="evenodd" clip-rule="evenodd" d="M2.13794 0H9.798C10.9769 0 11.9359 0.959106 11.9359 2.13794V14.394C11.9359 14.6209 11.8091 14.8289 11.6073 14.9328C11.5199 14.9778 11.4248 14.9999 11.3301 14.9999C11.206 14.9999 11.0826 14.9619 10.9778 14.8871L5.96799 11.3086L0.95813 14.8871C0.773468 15.0191 0.530518 15.0367 0.328674 14.9328C0.126862 14.8289 0 14.621 0 14.394V2.13794C0 0.959106 0.959076 0 2.13794 0ZM6.32016 10.071L10.7241 13.2166V2.13797C10.7241 1.62732 10.3087 1.21185 9.798 1.21185H2.13797C1.62732 1.21185 1.21185 1.62732 1.21185 2.13797V13.2166L5.61581 10.071C5.72116 9.99576 5.84457 9.9581 5.96799 9.9581C6.0914 9.9581 6.21481 9.99573 6.32016 10.071Z" fill="#989898"/>
</svg>
