<svg width="12" height="12" viewBox="0 0 12 12" fill="none" xmlns="http://www.w3.org/2000/svg">
<path fill-rule="evenodd" clip-rule="evenodd" d="M8.20318 0C9.21719 0 10.1704 0.394684 10.8874 1.11133C11.6044 1.828 11.9993 2.78085 11.9992 3.79434C11.9992 4.80786 11.6044 5.76071 10.8874 6.47739L7.17046 10.2036C7.07946 10.2949 6.95589 10.3461 6.82702 10.3461H2.34051L3.31042 9.37662H6.62652L7.85912 8.14093H8.75823C9.02608 8.14093 9.24316 7.92392 9.24316 7.65619C9.24316 7.4101 9.05972 7.20682 8.82204 7.1756L10.2019 5.79233L10.2024 5.79181C10.7361 5.25827 11.0301 4.54889 11.0301 3.79434C11.0301 3.03979 10.7361 2.33038 10.2024 1.79684C9.66857 1.26331 8.95882 0.969482 8.20397 0.969482C7.44909 0.969482 6.73937 1.26331 6.20556 1.79688L2.62463 5.37613V8.69104L1.65389 9.66132V5.17535C1.65389 5.04678 1.70501 4.92349 1.79595 4.83258L5.51891 1.11133C6.23589 0.394684 7.1892 0 8.20318 0ZM4.00079 7.31552L2.62463 8.69104V9.37662H3.31042L4.54668 8.14093H7.85912L8.82204 7.1756C8.80117 7.17285 8.77984 7.17145 8.7582 7.17145H5.51659L8.54958 4.13986C8.73898 3.95056 8.73898 3.64365 8.54958 3.45435C8.36019 3.26505 8.05315 3.26505 7.86376 3.45435L4.005 7.31131C4.09258 7.22482 4.21294 7.17145 4.34579 7.17145H5.51659L4.54668 8.14093H4.34579C4.07796 8.14093 3.86083 7.92392 3.86083 7.65619C3.86083 7.52341 3.91427 7.40308 4.00079 7.31552ZM1.65389 9.66132V9.86139C1.65389 10.1291 1.87103 10.3461 2.13885 10.3461H2.34051L0.827904 11.858C0.733208 11.9527 0.609093 12 0.484978 12C0.360832 12 0.236748 11.9527 0.142021 11.858C-0.0473404 11.6687 -0.0473404 11.3618 0.142021 11.1725L1.65389 9.66132Z" fill="#989898"/>
</svg>
