<svg width="13" height="15" viewBox="0 0 13 15" fill="none" xmlns="http://www.w3.org/2000/svg">
<path fill-rule="evenodd" clip-rule="evenodd" d="M11.8683 0.735535C11.6419 0.641724 11.3813 0.693573 11.208 0.866852C11.2029 0.871979 10.5894 1.37881 8.87885 1.37881C7.96143 1.37881 7.17688 1.06497 6.34619 0.732727C5.44562 0.372498 4.5144 0 3.36359 0C1.10944 0 0.266235 0.778198 0.17749 0.866852C0.0638428 0.980499 0 1.13464 0 1.29535V9.56821C6.10352e-05 9.23358 0.271362 8.96231 0.605957 8.96231C0.940613 8.96231 1.21191 9.23358 1.21191 9.56824V9.88919C1.10571 9.94507 1.04706 9.98868 1.02795 10.0038C0.861145 10.1867 0.611206 10.2366 0.378662 10.1486C0.145874 10.0604 0.00341797 9.82581 6.10352e-05 9.57721V14.3941C6.10352e-05 14.7287 0.271362 15 0.605957 15C0.940613 15 1.21191 14.7287 1.21191 14.3941V9.88919C1.50635 9.73425 2.16644 9.48474 3.36353 9.48474C4.28101 9.48474 5.06555 9.79855 5.89612 10.1308C6.79675 10.4911 7.72803 10.8636 8.87885 10.8636C11.133 10.8636 11.9762 10.0854 12.0649 9.99667C12.1786 9.88306 12.2424 9.72891 12.2424 9.56824V1.29535C12.2424 1.05026 12.0947 0.829315 11.8683 0.735535ZM11.0305 9.24722C10.7361 9.40213 10.076 9.6517 8.87885 9.6517C7.96143 9.6517 7.17688 9.33789 6.34619 9.00562C5.44562 8.64539 4.5144 8.27289 3.36359 8.27289C2.41083 8.27289 1.71002 8.41193 1.21185 8.57913V1.61639C1.50629 1.46143 2.16644 1.21188 3.36359 1.21188C4.28101 1.21188 5.06555 1.52573 5.89612 1.85797L5.89667 1.85825L5.89722 1.85843C6.79761 2.21848 7.72852 2.59073 8.87885 2.59073C9.8316 2.59073 10.5323 2.45169 11.0305 2.28448V9.24722Z" fill="#E7752E"/>
</svg>
