<svg width="15" height="15" viewBox="0 0 15 15" fill="none" xmlns="http://www.w3.org/2000/svg">
<path fill-rule="evenodd" clip-rule="evenodd" d="M7.5 0C7.76892 0 8.03577 0.0140686 8.29956 0.0418396C8.08093 0.0322266 7.86444 0.141693 7.7475 0.344269L7.24353 1.21698C5.41559 1.29065 3.78607 2.14835 2.68298 3.46213L2.47498 3.1019C2.30762 2.8121 1.93713 2.71286 1.64728 2.88019C1.5871 2.91492 1.53503 2.95859 1.492 3.0083C1.70557 2.72391 1.94073 2.45267 2.19672 2.19672C3.61328 0.780182 5.4967 0 7.5 0ZM1.43787 3.08127C1.45575 3.05685 1.47382 3.03253 1.492 3.0083C1.48254 3.01926 1.47351 3.03049 1.4649 3.04196C1.45532 3.05472 1.44635 3.06781 1.43787 3.08127ZM1.93048 4.58234L1.42554 3.70792C1.30908 3.50626 1.32178 3.26547 1.43787 3.08127C0.50415 4.35651 0 5.8895 0 7.5C0 9.50333 0.780151 11.3867 2.19672 12.8033C3.40417 14.0108 4.95093 14.7559 6.62195 14.9495C6.64795 14.9541 6.67395 14.957 6.70007 14.9581C6.96399 14.9859 7.2309 15 7.5 15C9.5033 15 11.3867 14.2198 12.8033 12.8033C13.0593 12.5472 13.2946 12.2759 13.5082 11.9914C13.5281 11.9684 13.5458 11.9445 13.5618 11.9192C14.4957 10.6438 15 9.11069 15 7.5C15 5.49667 14.2198 3.61325 12.8033 2.19672C11.5959 0.989319 10.0493 0.244263 8.37848 0.0505676C8.35211 0.0458679 8.32605 0.0429993 8.29956 0.0418396C8.32593 0.0446167 8.35217 0.0475159 8.37848 0.0505676C8.44586 0.0625916 8.51257 0.0863342 8.57526 0.122559C8.86499 0.289917 8.96429 0.660492 8.79688 0.950287L8.59113 1.30658C8.23663 1.24429 7.87195 1.21182 7.49988 1.21182L7.44238 1.21207C7.4187 1.21228 7.39502 1.21265 7.3714 1.2131C7.32867 1.21396 7.28607 1.21527 7.24353 1.21698L5.38483 4.43576C5.49011 4.25668 5.68475 4.13647 5.90747 4.13647H6.95697L6.2572 5.3483H5.90747C5.57288 5.3483 5.30157 5.07703 5.30157 4.7424C5.30157 4.63391 5.33014 4.53207 5.38007 4.44397L4.315 6.2883L2.68298 3.46213C2.3941 3.80621 2.1413 4.18158 1.93048 4.58234ZM1.59094 9.65173C1.34564 8.98016 1.21173 8.25543 1.21173 7.5C1.21173 6.44763 1.47156 5.4548 1.93048 4.58234L3.78528 7.79425C3.68555 7.61432 3.67993 7.38809 3.79028 7.19696L4.315 6.2883L5.01471 7.49997L4.83972 7.80301C4.72748 7.99734 4.5238 8.10602 4.31445 8.10602C4.21161 8.10602 4.10742 8.07983 4.01202 8.02469C3.91992 7.9715 3.84698 7.89777 3.79584 7.81262L4.85791 9.65173H1.59094ZM2.1889 10.8636C1.9483 10.485 1.74707 10.0791 1.59094 9.65173H1.1781C0.843506 9.65173 0.572205 9.923 0.572205 10.2577C0.572205 10.5923 0.843506 10.8636 1.1781 10.8636H2.1889ZM5.89752 10.8636H2.1889C3.1192 12.3273 4.63757 13.3823 6.40887 13.6934L6.20312 14.0497C6.03577 14.3395 6.13501 14.7101 6.42487 14.8774C6.48767 14.9137 6.55438 14.9375 6.62195 14.9495C6.64795 14.9525 6.67401 14.9554 6.70007 14.9581C6.70911 14.9585 6.71826 14.9587 6.72729 14.9587C6.93671 14.9587 7.14038 14.8501 7.25262 14.6557L7.75659 13.783C9.58441 13.7092 11.2139 12.8515 12.3169 11.5378L12.525 11.8981C12.6372 12.0925 12.8409 12.2011 13.0502 12.2011C13.1531 12.2011 13.2573 12.175 13.3527 12.1198C13.413 12.085 13.4651 12.0412 13.5082 11.9914C13.5262 11.9674 13.5441 11.9433 13.5618 11.9192C13.6781 11.7349 13.6909 11.4939 13.5744 11.2921L13.0694 10.4175C13.5283 9.54507 13.7881 8.55231 13.7881 7.5C13.7881 6.7446 13.6542 6.01987 13.4089 5.3483H13.8219C14.1566 5.3483 14.4278 5.07703 14.4278 4.7424C14.4278 4.40778 14.1566 4.13647 13.8218 4.13647H12.8109C11.8807 2.67279 10.3623 1.61777 8.59113 1.30658L6.95697 4.13647H9.07953C8.98077 4.13849 8.88104 4.16476 8.78943 4.21765C8.49969 4.38501 8.40039 4.75558 8.56775 5.04538L8.74268 5.3483H6.2572L5.01471 7.49997L6.25726 9.65173H4.85791L5.38275 10.5606C5.4931 10.7517 5.69183 10.86 5.89752 10.8636ZM5.91864 10.8636L5.90808 10.8636L5.89752 10.8636H5.91864ZM8.04303 10.8636L6.40887 13.6934C6.76331 13.7557 7.12787 13.7881 7.49988 13.7881C7.58588 13.7881 7.67145 13.7864 7.75659 13.783L9.61639 10.5623C9.51141 10.7425 9.3161 10.8636 9.09253 10.8636H8.04303ZM8.7428 9.65173H6.25726L6.43219 9.95462C6.59955 10.2445 6.50024 10.615 6.21051 10.7823C6.11829 10.8356 6.01801 10.8618 5.91864 10.8636H8.04303L8.7428 9.65173ZM9.98529 7.50012L8.74268 5.3483H10.142L11.2009 7.18198C11.15 7.09909 11.0782 7.02734 10.988 6.97528C10.6983 6.80789 10.3277 6.90717 10.1603 7.19699L9.98529 7.50012ZM11.2178 7.21118L13.0694 10.4175C12.8586 10.8183 12.6058 11.1937 12.3169 11.5378L10.685 8.71179L11.2098 7.80301C11.319 7.6138 11.3146 7.3902 11.2178 7.21118ZM9.61877 10.5582C9.66943 10.4696 9.69843 10.367 9.69843 10.2577C9.69843 9.923 9.42719 9.65173 9.09247 9.65173H8.7428L9.98529 7.50012L10.685 8.71179L9.61877 10.5582ZM10.142 5.3483H13.4089C13.2527 4.9209 13.0515 4.51501 12.8109 4.13647H9.10431C9.30933 4.14069 9.50714 4.24884 9.61719 4.43939L10.142 5.3483Z" fill="#989898"/>
</svg>
