<svg width="21" height="26" viewBox="0 0 21 26" fill="none" xmlns="http://www.w3.org/2000/svg">
<path fill-rule="evenodd" clip-rule="evenodd" d="M16.363 14.5368C16.363 14.9291 16.0442 15.2478 15.652 15.2478H8.43866C8.04641 15.2478 7.72882 14.9291 7.72882 14.5368C7.72882 14.1446 8.04641 13.8258 8.43866 13.8258H15.652C16.0442 13.8258 16.363 14.1446 16.363 14.5368V14.5368ZM16.363 9.98513C16.363 10.3786 16.0442 10.6962 15.652 10.6962H8.43866C8.04641 10.6962 7.72882 10.3786 7.72882 9.98513C7.72882 9.59288 8.04641 9.27411 8.43866 9.27411H15.652C16.0442 9.27411 16.363 9.59288 16.363 9.98513V9.98513ZM19.5791 18.2282C19.5791 19.5424 18.5102 20.6101 17.1984 20.6101H6.89331C5.58029 20.6101 4.51257 19.5424 4.51257 18.2282V3.80279C4.51257 2.48977 5.58029 1.42206 6.89331 1.42206H14.0059C14.365 1.42206 14.7051 1.56189 14.9598 1.81786L19.1845 6.04132C19.4381 6.29492 19.5791 6.63503 19.5791 6.99528V18.2282ZM14.1078 23.7007H3.80155C2.48971 23.7007 1.422 22.633 1.422 21.3211V6.89332C1.422 5.83034 2.12709 4.93801 3.09171 4.63464V18.2282C3.09171 20.3257 4.79579 22.031 6.8933 22.031H16.3677C16.0631 22.9956 15.1708 23.7007 14.1078 23.7007V23.7007ZM20.1894 5.03521L15.9648 0.811749C15.4422 0.287963 14.7466 0 14.0059 0H6.89335C5.01744 0 3.46504 1.36753 3.15575 3.15693C1.36753 3.46504 0 5.01862 0 6.89335V21.3211C0 23.4175 1.70527 25.1227 3.80159 25.1227H14.1078C15.9837 25.1227 17.535 23.7552 17.8443 21.9658C19.6337 21.6577 21 20.1041 21 18.2282V6.99526C21 6.25461 20.712 5.55781 20.1894 5.03521V5.03521Z" fill="white"/>
</svg>
