<svg width="21" height="26" viewBox="0 0 21 26" fill="#4b96b3" xmlns="http://www.w3.org/2000/svg">
    <path fill-rule="evenodd" clip-rule="evenodd"
          d="M13.064 13.628C13.064 14.0321 12.7355 14.3606 12.3314 14.3606H10.1948C9.79065 14.3606 9.46222 14.0321 9.46222 13.628V10.9566C9.46222 10.5525 9.79065 10.2253 10.1948 10.2253C10.6001 10.2253 10.9273 10.5525 10.9273 10.9566V12.8955H12.3314C12.7355 12.8955 13.064 13.2239 13.064 13.628V13.628ZM10.5 17.2456C8.12774 17.2456 6.19623 15.3141 6.19623 12.9418C6.19623 10.5684 8.12774 8.63684 10.5 8.63684C12.8735 8.63684 14.805 10.5684 14.805 12.9418C14.805 15.3141 12.8735 17.2456 10.5 17.2456V17.2456ZM10.5 7.17297C7.31945 7.17297 4.73108 9.76012 4.73108 12.9419C4.73108 16.1224 7.31945 18.7095 10.5 18.7095C13.6817 18.7095 16.2689 16.1224 16.2689 12.9419C16.2689 9.76012 13.6817 7.17297 10.5 7.17297V7.17297ZM19.5361 21.4871C19.5361 23.1036 18.2211 24.4186 16.6046 24.4186H4.39532C2.78003 24.4186 1.46509 23.1036 1.46509 21.4871V4.39532C1.46509 2.77881 2.78003 1.46387 4.39532 1.46387H12.8222C13.2715 1.46387 13.7122 1.64701 14.0309 1.96445L19.0355 6.96904C19.3529 7.2877 19.5361 7.72846 19.5361 8.17776V21.4871ZM20.0697 5.93372L15.0663 0.930349C14.4656 0.329651 13.6695 0 12.8222 0H4.39535C1.97302 0 0 1.97058 0 4.39535V21.4872C0 23.9119 1.97302 25.8825 4.39535 25.8825H16.6047C19.0294 25.8825 21 23.9119 21 21.4872V8.17779C21 7.33046 20.6691 6.5332 20.0697 5.93372V5.93372Z"
          fill="inherit"/>
</svg>
